<?xml version="1.0" encoding="UTF-8"?>
<svg version="1.1" xmlns="http://www.w3.org/2000/svg" width="1000" height="1000">
<path d="M0 0 C2.55928589 0.26393769 5.11935767 0.51903954 7.67962646 0.77325439 C89.6140192 8.98937936 171.25329943 25.17080076 248.45550537 54.25323486 C249.67528076 54.70360107 250.89505615 55.15396729 252.15179443 55.61798096 C255.69952151 56.93228462 259.23527807 58.27419682 262.76800537 59.62823486 C263.82527832 60.02099609 264.88255127 60.41375732 265.97186279 60.81842041 C266.93197266 61.19651855 267.89208252 61.5746167 268.88128662 61.96417236 C269.72086914 62.28692139 270.56045166 62.60967041 271.42547607 62.94219971 C274.63288459 65.01361086 275.18558852 68.10684834 276.03527832 71.71563721 C276.19038879 72.58140381 276.34549927 73.44717041 276.50531006 74.33917236 C276.77666275 75.83511681 276.77666275 75.83511681 277.05349731 77.36128235 C277.24287872 78.43937668 277.43226013 79.51747101 277.62738037 80.62823486 C277.8303775 81.76397446 278.03337463 82.89971405 278.24252319 84.06987 C278.90468099 87.79632641 279.55646525 91.52447237 280.20550537 95.25323486 C280.42893616 96.53175323 280.65236694 97.81027161 280.88256836 99.12753296 C286.31141843 130.31336871 290.65439411 161.55687426 293.70550537 193.06573486 C293.78290955 193.85906219 293.86031372 194.65238953 293.94006348 195.46975708 C294.50931164 201.39287029 294.99839442 207.32048452 295.45550537 213.25323486 C295.54270844 214.36150635 295.6299115 215.46977783 295.71975708 216.6116333 C297.40373981 238.5802649 297.82075233 260.46494395 297.77356339 282.49166489 C297.76791447 285.17135427 297.76509946 287.8510373 297.76248169 290.5307312 C297.72556989 316.52955781 297.40453917 342.39391644 294.45550537 368.25323486 C294.36593567 369.05243347 294.27636597 369.85163208 294.18408203 370.67504883 C292.84246156 382.57001167 291.25104525 394.41869006 289.45550537 406.25323486 C289.27294189 407.4697876 289.09037842 408.68634033 288.90228271 409.9397583 C282.28842331 452.8474002 271.06842084 496.48820837 253.45550537 536.25323486 C252.66321533 538.06283691 252.66321533 538.06283691 251.85491943 539.90899658 C231.82275762 585.56536164 206.56524333 628.72706556 172.79144287 665.67120361 C171.53564925 667.05929656 170.2854716 668.45313862 169.07269287 669.87896729 C163.81638827 676.03467327 158.14383452 681.75102428 152.42327881 687.47076416 C150.71755939 689.17866542 149.0200151 690.89441531 147.32269287 692.61065674 C141.39769678 698.56534074 135.3980551 704.16671858 128.79876709 709.37750244 C126.55550899 711.17318404 124.43735162 713.050568 122.33050537 715.00323486 C74.96437353 757.48104705 14.89565079 786.88375862 -44.20367432 808.99639893 C-47.13174534 810.09795619 -50.04656356 811.22726135 -52.95855713 812.37042236 C-54.4450118 812.93690472 -55.93193641 813.50215673 -57.41949463 814.06573486 C-59.21000244 814.75602783 -59.21000244 814.75602783 -61.03668213 815.46026611 C-69.4477076 817.36164492 -76.94071491 814.36993482 -84.79449463 811.44073486 C-85.87803223 811.04185059 -86.96156982 810.64296631 -88.07794189 810.23199463 C-133.83037757 793.18453856 -178.29830424 772.05610852 -218.54449463 744.25323486 C-219.22608643 743.78417725 -219.90767822 743.31511963 -220.60992432 742.83184814 C-230.53763682 735.97915083 -240.15826521 728.82905533 -249.54449463 721.25323486 C-250.521604 720.47077393 -251.49871338 719.68831299 -252.50543213 718.88214111 C-257.80192944 714.6019185 -262.93639827 710.18392891 -267.96246338 705.58917236 C-269.35055632 704.33337875 -270.74439839 703.08320109 -272.17022705 701.87042236 C-278.32593304 696.61411776 -284.04228404 690.94156401 -289.76202393 685.2210083 C-291.46992519 683.51528889 -293.18567507 681.8177446 -294.9019165 680.12042236 C-300.79037183 674.26187496 -306.32358186 668.31281923 -311.49639893 661.79815674 C-313.478045 659.33580381 -315.54016338 656.98603688 -317.66168213 654.64385986 C-321.58293971 650.27484623 -325.16300642 645.70916089 -328.66949463 641.00323486 C-329.30838623 640.1477002 -329.94727783 639.29216553 -330.60552979 638.41070557 C-340.61946499 624.872072 -349.94896402 610.81774778 -358.38433838 596.24102783 C-359.64690464 594.07776721 -360.93923557 591.93373388 -362.23199463 589.78839111 C-396.68034203 531.90888192 -415.64967231 465.47600529 -425.54449463 399.25323486 C-425.73737061 397.98640869 -425.93024658 396.71958252 -426.12896729 395.41436768 C-427.37657311 387.06726471 -428.43210801 378.70734181 -429.32446289 370.31530762 C-429.4709056 368.94288959 -429.6201887 367.57077162 -429.77233887 366.19897461 C-435.65893871 312.96302474 -435.06120828 256.81136663 -429.769104 203.55108643 C-429.54222851 201.23005146 -429.33017173 198.90810393 -429.12261963 196.58526611 C-425.8867625 160.51760768 -420.53590344 124.65248693 -414.23199463 89.00323486 C-413.97585388 87.54589432 -413.97585388 87.54589432 -413.71453857 86.05911255 C-413.23134736 83.32561331 -412.73955041 80.59384054 -412.24371338 77.86260986 C-412.10126694 77.05975052 -411.9588205 76.25689117 -411.8120575 75.42970276 C-410.28460594 67.17203475 -410.28460594 67.17203475 -408.54449463 64.25323486 C-405.85943604 62.68267822 -405.85943604 62.68267822 -402.39605713 61.34307861 C-401.76512146 61.0943248 -401.13418579 60.84557098 -400.48413086 60.58927917 C-398.38638076 59.76975327 -396.27906846 58.97928178 -394.16949463 58.19073486 C-392.67794331 57.62039837 -391.18657283 57.04958877 -389.69537354 56.47833252 C-309.64538209 26.06386287 -225.18242277 8.95630686 -140.12109375 0.51037598 C-137.64654891 0.26341974 -135.17290947 0.00868288 -132.69927979 -0.24725342 C-88.77600251 -4.71910666 -43.90907749 -4.54309179 0 0 Z " fill="#FF9B32" transform="translate(567.5444946289063,96.74676513671875)"/>
<path d="M0 0 C2.55928589 0.26393769 5.11935767 0.51903954 7.67962646 0.77325439 C89.6140192 8.98937936 171.25329943 25.17080076 248.45550537 54.25323486 C249.67528076 54.70360107 250.89505615 55.15396729 252.15179443 55.61798096 C255.69952151 56.93228462 259.23527807 58.27419682 262.76800537 59.62823486 C263.82527832 60.02099609 264.88255127 60.41375732 265.97186279 60.81842041 C266.93197266 61.19651855 267.89208252 61.5746167 268.88128662 61.96417236 C269.72086914 62.28692139 270.56045166 62.60967041 271.42547607 62.94219971 C274.63288459 65.01361086 275.18558852 68.10684834 276.03527832 71.71563721 C276.19038879 72.58140381 276.34549927 73.44717041 276.50531006 74.33917236 C276.77666275 75.83511681 276.77666275 75.83511681 277.05349731 77.36128235 C277.24287872 78.43937668 277.43226013 79.51747101 277.62738037 80.62823486 C277.8303775 81.76397446 278.03337463 82.89971405 278.24252319 84.06987 C278.90468099 87.79632641 279.55646525 91.52447237 280.20550537 95.25323486 C280.42893616 96.53175323 280.65236694 97.81027161 280.88256836 99.12753296 C286.31141843 130.31336871 290.65439411 161.55687426 293.70550537 193.06573486 C293.78290955 193.85906219 293.86031372 194.65238953 293.94006348 195.46975708 C294.50931164 201.39287029 294.99839442 207.32048452 295.45550537 213.25323486 C295.54270844 214.36150635 295.6299115 215.46977783 295.71975708 216.6116333 C297.40373981 238.5802649 297.82075233 260.46494395 297.77356339 282.49166489 C297.76791447 285.17135427 297.76509946 287.8510373 297.76248169 290.5307312 C297.72556989 316.52955781 297.40453917 342.39391644 294.45550537 368.25323486 C294.36593567 369.05243347 294.27636597 369.85163208 294.18408203 370.67504883 C292.84246156 382.57001167 291.25104525 394.41869006 289.45550537 406.25323486 C289.27294189 407.4697876 289.09037842 408.68634033 288.90228271 409.9397583 C282.28842331 452.8474002 271.06842084 496.48820837 253.45550537 536.25323486 C252.66321533 538.06283691 252.66321533 538.06283691 251.85491943 539.90899658 C231.82275762 585.56536164 206.56524333 628.72706556 172.79144287 665.67120361 C171.53564925 667.05929656 170.2854716 668.45313862 169.07269287 669.87896729 C163.81638827 676.03467327 158.14383452 681.75102428 152.42327881 687.47076416 C150.71755939 689.17866542 149.0200151 690.89441531 147.32269287 692.61065674 C141.39769678 698.56534074 135.3980551 704.16671858 128.79876709 709.37750244 C126.55550899 711.17318404 124.43735162 713.050568 122.33050537 715.00323486 C74.96437353 757.48104705 14.89565079 786.88375862 -44.20367432 808.99639893 C-47.13174534 810.09795619 -50.04656356 811.22726135 -52.95855713 812.37042236 C-54.4450118 812.93690472 -55.93193641 813.50215673 -57.41949463 814.06573486 C-59.21000244 814.75602783 -59.21000244 814.75602783 -61.03668213 815.46026611 C-69.4477076 817.36164492 -76.94071491 814.36993482 -84.79449463 811.44073486 C-85.87803223 811.04185059 -86.96156982 810.64296631 -88.07794189 810.23199463 C-133.83037757 793.18453856 -178.29830424 772.05610852 -218.54449463 744.25323486 C-219.22608643 743.78417725 -219.90767822 743.31511963 -220.60992432 742.83184814 C-230.53763682 735.97915083 -240.15826521 728.82905533 -249.54449463 721.25323486 C-250.521604 720.47077393 -251.49871338 719.68831299 -252.50543213 718.88214111 C-257.80192944 714.6019185 -262.93639827 710.18392891 -267.96246338 705.58917236 C-269.35055632 704.33337875 -270.74439839 703.08320109 -272.17022705 701.87042236 C-278.32593304 696.61411776 -284.04228404 690.94156401 -289.76202393 685.2210083 C-291.46992519 683.51528889 -293.18567507 681.8177446 -294.9019165 680.12042236 C-300.79037183 674.26187496 -306.32358186 668.31281923 -311.49639893 661.79815674 C-313.478045 659.33580381 -315.54016338 656.98603688 -317.66168213 654.64385986 C-321.58293971 650.27484623 -325.16300642 645.70916089 -328.66949463 641.00323486 C-329.30838623 640.1477002 -329.94727783 639.29216553 -330.60552979 638.41070557 C-340.61946499 624.872072 -349.94896402 610.81774778 -358.38433838 596.24102783 C-359.64690464 594.07776721 -360.93923557 591.93373388 -362.23199463 589.78839111 C-396.68034203 531.90888192 -415.64967231 465.47600529 -425.54449463 399.25323486 C-425.73737061 397.98640869 -425.93024658 396.71958252 -426.12896729 395.41436768 C-427.37657311 387.06726471 -428.43210801 378.70734181 -429.32446289 370.31530762 C-429.4709056 368.94288959 -429.6201887 367.57077162 -429.77233887 366.19897461 C-435.65893871 312.96302474 -435.06120828 256.81136663 -429.769104 203.55108643 C-429.54222851 201.23005146 -429.33017173 198.90810393 -429.12261963 196.58526611 C-425.8867625 160.51760768 -420.53590344 124.65248693 -414.23199463 89.00323486 C-413.97585388 87.54589432 -413.97585388 87.54589432 -413.71453857 86.05911255 C-413.23134736 83.32561331 -412.73955041 80.59384054 -412.24371338 77.86260986 C-412.10126694 77.05975052 -411.9588205 76.25689117 -411.8120575 75.42970276 C-410.28460594 67.17203475 -410.28460594 67.17203475 -408.54449463 64.25323486 C-405.85943604 62.68267822 -405.85943604 62.68267822 -402.39605713 61.34307861 C-401.76512146 61.0943248 -401.13418579 60.84557098 -400.48413086 60.58927917 C-398.38638076 59.76975327 -396.27906846 58.97928178 -394.16949463 58.19073486 C-392.67794331 57.62039837 -391.18657283 57.04958877 -389.69537354 56.47833252 C-309.64538209 26.06386287 -225.18242277 8.95630686 -140.12109375 0.51037598 C-137.64654891 0.26341974 -135.17290947 0.00868288 -132.69927979 -0.24725342 C-88.77600251 -4.71910666 -43.90907749 -4.54309179 0 0 Z M-235.27935791 60.54522705 C-239.11243762 61.37638685 -242.95109105 62.17891697 -246.79058838 62.97979736 C-255.04881426 64.70581027 -263.29898939 66.46748301 -271.54449463 68.25323486 C-272.46826904 68.45303955 -273.39204346 68.65284424 -274.34381104 68.85870361 C-284.1814766 71.00936648 -293.77762686 73.73928785 -303.39996338 76.69464111 C-307.60144924 77.98061549 -311.82152977 79.18072935 -316.05523682 80.35552979 C-325.30292007 82.92934442 -334.43569247 85.7865767 -343.54449463 88.81573486 C-344.64156738 89.17965332 -345.73864014 89.54357178 -346.86895752 89.91851807 C-354.51165926 92.48798252 -362.04028569 95.3048238 -369.54449463 98.25323486 C-382.13770824 176.44444637 -393.49808685 257.02039651 -385.90386963 336.35284424 C-385.55441159 340.14560354 -385.2457438 343.93949806 -384.94688416 347.73648071 C-382.42414743 379.66702255 -378.42116805 411.15373592 -370.54449463 442.25323486 C-370.34501221 443.04858643 -370.14552979 443.84393799 -369.94000244 444.66339111 C-368.53944593 450.21148937 -367.05683146 455.73470775 -365.54449463 461.25323486 C-365.3164917 462.09740967 -365.08848877 462.94158447 -364.85357666 463.81134033 C-361.63046104 475.70611911 -357.93525118 487.30532304 -353.48858643 498.80059814 C-352.80509618 500.57622345 -352.13360026 502.35648112 -351.46954346 504.13946533 C-348.11898909 513.05549867 -344.31518192 521.72021994 -340.35699463 530.37823486 C-339.85919998 531.46855515 -339.85919998 531.46855515 -339.35134888 532.5809021 C-331.89474945 548.88018485 -323.77768018 564.45386047 -314.41949463 579.75323486 C-313.43348267 581.3657312 -313.43348267 581.3657312 -312.42755127 583.01080322 C-308.09489571 589.99471257 -303.45657714 596.66643237 -298.54449463 603.25323486 C-297.54913048 604.61349322 -296.55428399 605.97413063 -295.56011963 607.33526611 C-288.92721755 616.31646272 -281.95664168 624.90508671 -274.54449463 633.25323486 C-273.60621826 634.32287476 -273.60621826 634.32287476 -272.64898682 635.41412354 C-266.64103331 642.19336837 -260.33748501 648.64643608 -253.93414307 655.04888916 C-252.1737441 656.8114801 -250.42153081 658.58194525 -248.66949463 660.35284424 C-241.93412901 667.12128204 -235.03701288 673.32250431 -227.54449463 679.25323486 C-226.45425524 680.17612748 -225.36963557 681.10576506 -224.29449463 682.04620361 C-210.04686404 694.45216605 -194.61468528 705.34506456 -178.54449463 715.25323486 C-177.74801514 715.74614014 -176.95153564 716.23904541 -176.13092041 716.74688721 C-160.37622692 726.43292527 -144.06636394 734.97193833 -127.54449463 743.25323486 C-126.10759277 743.97470703 -126.10759277 743.97470703 -124.6416626 744.71075439 C-109.95047675 752.03345546 -94.82857145 758.28009169 -79.54449463 764.25323486 C-78.53032471 764.663479 -77.51615479 765.07372314 -76.47125244 765.49639893 C-75.50800049 765.87248291 -74.54474854 766.24856689 -73.55230713 766.63604736 C-72.7055542 766.97265381 -71.85880127 767.30926025 -70.98638916 767.65606689 C-64.29667436 769.29204394 -56.8371868 764.78743478 -50.73199463 762.37823486 C-50.1145639 762.13535736 -49.49713318 761.89247986 -48.86099243 761.64224243 C-37.09767967 757.00322952 -25.59042989 751.88512598 -14.1572876 746.48175049 C-11.79559044 745.37129823 -9.42551218 744.28331279 -7.04840088 743.20635986 C31.19557259 725.78256801 66.99421836 702.06713174 98.45550537 674.25323486 C99.30113037 673.50815674 100.14675537 672.76307861 101.01800537 671.99542236 C103.51635904 669.76827156 105.98829702 667.51484252 108.45550537 665.25323486 C108.99755615 664.76161865 109.53960693 664.27000244 110.0980835 663.76348877 C122.64731384 652.36793355 134.64217309 640.3989973 145.18597412 627.09698486 C146.84517599 625.01798494 148.52546499 622.98924324 150.25628662 620.97198486 C164.45678132 604.24520184 176.65826324 585.33218128 187.45550537 566.25323486 C187.88959717 565.4996167 188.32368896 564.74599854 188.77093506 563.96954346 C208.37034801 529.8214903 221.87598779 493.08106719 232.45550537 455.25323486 C232.73732666 454.2526001 233.01914795 453.25196533 233.30950928 452.2210083 C242.91903077 417.56975044 247.32304895 381.98950924 250.45550537 346.25323486 C250.52447021 345.48058289 250.59343506 344.70793091 250.66448975 343.91186523 C254.56606059 299.83322822 253.10621516 255.28892969 249.45550537 211.25323486 C249.31484417 209.51218961 249.17421852 207.77114149 249.03363037 206.03009033 C247.34806299 185.46898986 244.87237428 165.04983527 241.95550537 144.62823486 C241.81197632 143.62286682 241.66844727 142.61749878 241.52056885 141.58166504 C240.82292183 136.73251012 240.09306515 131.89256921 239.30706787 127.0569458 C238.66571538 123.01211491 238.26547231 119.01085142 237.97894287 114.92608643 C237.48225601 104.98889489 237.48225601 104.98889489 232.79681396 96.67224121 C228.48146492 94.03960772 223.79808237 92.88177241 218.89642334 91.81451416 C215.83845739 91.11134715 212.93842467 90.11263019 209.98161316 89.07243347 C206.33375261 87.79719077 202.64266252 86.65880447 198.95550537 85.50323486 C197.76342972 85.12737747 197.76342972 85.12737747 196.54727173 84.743927 C170.30028448 76.49879165 143.53009297 69.22094764 116.53460693 63.86749268 C113.61658001 63.28536805 110.70307465 62.68339558 107.78977966 62.07810974 C75.42167623 55.38035997 42.71286069 50.31415784 9.83050537 46.94073486 C9.10157074 46.86537506 8.37263611 46.79001526 7.62161255 46.71237183 C2.2377035 46.16471381 -3.15089914 45.6944568 -8.54449463 45.25323486 C-10.10150589 45.12353302 -10.10150589 45.12353302 -11.68997192 44.99121094 C-30.2659752 43.47631874 -48.72330565 42.92255599 -67.35699463 43.00323486 C-68.66754822 43.00666901 -69.97810181 43.01010315 -71.32836914 43.01364136 C-126.00485073 43.16764271 -181.78681784 48.8744494 -235.27935791 60.54522705 Z " fill="#FFFEFE" transform="translate(567.5444946289063,96.74676513671875)"/>
<path d="M0 0 C15.83873574 12.84128833 25.50145605 29.61085449 29.12255859 49.59082031 C29.12255859 51.57082031 29.12255859 53.55082031 29.12255859 55.59082031 C37.04255859 55.59082031 44.96255859 55.59082031 53.12255859 55.59082031 C50.63109711 61.59990277 48.12846097 67.60139682 45.54443359 73.57128906 C34.88756467 97.57023786 34.88756467 97.57023786 27.12255859 122.59082031 C27.96173828 122.51863281 28.80091797 122.44644531 29.66552734 122.37207031 C40.82529311 121.51086652 51.93406797 121.48574129 63.12255859 121.59082031 C61.46962393 126.34532902 58.90505038 130.35319827 56.24755859 134.59082031 C18.15530487 196.3567925 -12.31798217 264.52040826 -9.87744141 338.59082031 C-8.81525391 338.95433594 -7.75306641 339.31785156 -6.65869141 339.69238281 C11.94950886 346.24472085 11.94950886 346.24472085 15.12255859 352.59082031 C15.2094686 355.43511388 15.23809661 358.25461207 15.22021484 361.09863281 C15.21809242 362.35956253 15.21809242 362.35956253 15.21592712 363.64596558 C15.21032097 366.33595306 15.19776746 369.0258579 15.18505859 371.71582031 C15.18004439 373.5374337 15.17548134 375.35904838 15.17138672 377.18066406 C15.16034954 381.65074808 15.14308079 386.12077018 15.12255859 390.59082031 C1.17490426 391.74970292 -12.73426494 391.7198862 -26.72119141 391.68847656 C-29.18697073 391.68660763 -31.65275044 391.68518598 -34.11853027 391.68418884 C-40.55618342 391.68040106 -46.99381341 391.67060342 -53.43145752 391.65948486 C-60.02152188 391.64918964 -66.61159004 391.64467397 -73.20166016 391.63964844 C-86.09359702 391.6289772 -98.98551797 391.61214339 -111.87744141 391.59082031 C-112.07600719 386.16501021 -112.22073666 380.74133681 -112.31689453 375.31274414 C-112.35699475 373.46861921 -112.41149307 371.62474658 -112.48095703 369.78149414 C-113.04250915 354.49158597 -113.04250915 354.49158597 -110.20605469 349.86401367 C-108.15993135 348.03913782 -106.32771718 346.8027907 -103.87744141 345.59082031 C-103.15081299 345.17856201 -102.42418457 344.76630371 -101.67553711 344.34155273 C-96.27169855 341.35390301 -91.08940196 339.46553707 -84.87744141 339.59082031 C-86.39528036 314.12818625 -88.65752688 289.38754622 -94.87744141 264.59082031 C-95.10834473 263.64319824 -95.33924805 262.69557617 -95.57714844 261.71923828 C-107.38894483 213.27869598 -130.14338751 166.99141318 -158.38891602 125.98266602 C-159.87744141 123.59082031 -159.87744141 123.59082031 -159.87744141 121.59082031 C-147.84011656 121.43951316 -135.89348669 121.90137509 -123.87744141 122.59082031 C-129.94976032 101.23154469 -138.18484721 80.90504874 -147.80517578 60.92138672 C-148.87744141 58.59082031 -148.87744141 58.59082031 -149.87744141 55.59082031 C-140.63744141 55.59082031 -131.39744141 55.59082031 -121.87744141 55.59082031 C-121.87744141 53.28082031 -121.87744141 50.97082031 -121.87744141 48.59082031 C-118.3480505 29.76048176 -108.54611455 11.59513065 -92.71728516 0.34472656 C-64.54237395 -18.63252511 -28.01021016 -21.02404851 0 0 Z " fill="#FFFDFC" transform="translate(544.87744140625,223.4091796875)"/>
<path d="M0 0 C34.98 0 69.96 0 106 0 C105.67 7.26 105.34 14.52 105 22 C104.86176391 34.09565777 104.96438798 45.96101024 106 58 C106.71285156 58.21914063 107.42570313 58.43828125 108.16015625 58.6640625 C114.49122154 60.76021601 119.46585217 63.00958572 124 68 C125.66577625 71.33155251 125.12007856 75.06536059 125.09765625 78.7265625 C125.09553383 80.02078629 125.09553383 80.02078629 125.09336853 81.34115601 C125.08776188 84.1024723 125.07520827 86.86370812 125.0625 89.625 C125.05748586 91.4947905 125.0529228 93.36458226 125.04882812 95.234375 C125.03779029 99.82294777 125.0205212 104.41146023 125 109 C126.09650879 109.13881592 127.19301758 109.27763184 128.32275391 109.4206543 C132.01602632 110.00252493 134.20919491 110.8886646 137.375 112.8125 C138.22835937 113.31394531 139.08171875 113.81539062 139.9609375 114.33203125 C142.23162117 116.1894679 142.66465799 117.13717283 143 120 C143.66 120 144.32 120 145 120 C145.32613281 120.99 145.65226563 121.98 145.98828125 123 C149.09581938 134.63105338 149.09581938 134.63105338 154.625 144.9375 C156.91850172 148.37775258 157.19549056 151.92166244 157 156 C155.23815585 163.06062355 149.70950623 167.85564798 144 172 C143.34 172 142.68 172 142 172 C142 172.66 142 173.32 142 174 C134.58305339 178.08518053 127.12065443 180.6772002 119 183 C118.3088208 183.23340088 117.6176416 183.46680176 116.90551758 183.70727539 C109.31080169 186.20105094 101.59829824 187.27572475 93.6875 188.1875 C92.58024567 188.31682419 92.58024567 188.31682419 91.45062256 188.44876099 C77.85164044 189.9870136 64.30349223 190.40836843 50.625 190.4375 C49.69948334 190.44349213 48.77396667 190.44948425 47.82040405 190.45565796 C30.69361702 190.52966154 14.0594116 188.51665525 -2.6875 184.9375 C-3.46287109 184.77701172 -4.23824219 184.61652344 -5.03710938 184.45117188 C-6.5792553 184.13197459 -8.12070916 183.80941141 -9.66137695 183.4831543 C-11.30270998 183.14405856 -12.94748707 182.82141558 -14.59448242 182.51098633 C-26.92666063 180.17619212 -40.62051687 175.08612117 -48.5625 164.875 C-52.15047246 159.45156185 -53.45601005 155.78198861 -52.546875 149.27734375 C-51.52110351 145.00573819 -49.36279707 141.59468663 -46.5078125 138.25390625 C-44.5247581 135.28959954 -43.72255067 132.13839004 -42.75 128.75 C-40.40371793 121.27055012 -37.58923465 115.71005566 -30.69140625 111.63671875 C-26.81076243 109.78242096 -24.37465721 109 -20 109 C-20.02618408 107.8447583 -20.05236816 106.6895166 -20.0793457 105.49926758 C-20.17000348 101.20372974 -20.22730551 96.90827606 -20.2746582 92.61206055 C-20.29976702 90.75449391 -20.33386134 88.89702573 -20.37719727 87.03979492 C-20.43801124 84.36612642 -20.4662452 81.69376635 -20.48828125 79.01953125 C-20.51408768 78.19226028 -20.5398941 77.36498932 -20.56648254 76.51264954 C-20.56857609 72.18629627 -20.44401063 70.54647812 -17.62182617 67.07299805 C-16.75662354 66.38890869 -15.8914209 65.70481934 -15 65 C-14.195625 64.278125 -13.39125 63.55625 -12.5625 62.8125 C-8.42772132 59.88790045 -5.04016384 59 0 59 C0 39.53 0 20.06 0 0 Z " fill="#FEFDFC" transform="translate(444,620)"/>
<path d="M0 0 C1.12093552 0.00007553 2.24187103 0.00015106 3.39677429 0.00022888 C4.60622208 0.00539017 5.81566986 0.01055145 7.06176758 0.01586914 C8.91986809 0.01799156 8.91986809 0.01799156 10.81550598 0.02015686 C14.1051142 0.02480937 17.39467343 0.03379149 20.68426514 0.04486084 C24.04251506 0.0550991 27.40077216 0.05965965 30.7590332 0.06469727 C37.34564095 0.07573394 43.93221588 0.09247773 50.51879883 0.11352539 C50.51879883 2.11352539 50.51879883 2.11352539 49.05786133 3.62133789 C48.4262207 4.15500977 47.79458008 4.68868164 47.14379883 5.23852539 C46.51731445 5.77735352 45.89083008 6.31618164 45.24536133 6.87133789 C43.51879883 8.11352539 43.51879883 8.11352539 41.51879883 8.11352539 C41.51879883 8.77352539 41.51879883 9.43352539 41.51879883 10.11352539 C40.9387207 10.3674707 40.35864258 10.62141602 39.76098633 10.88305664 C36.28443257 12.41480557 32.8613811 13.92796 29.51879883 15.73852539 C26.34830323 17.1916692 23.4385529 17.88905651 20.03833008 18.57836914 C17.17055054 19.18749441 14.35018909 19.91584668 11.51879883 20.67602539 C10.12661133 21.04920898 10.12661133 21.04920898 8.70629883 21.42993164 C6.56391977 21.91373545 6.56391977 21.91373545 5.51879883 23.11352539 C-26.82856635 30.71490527 -68.53811243 31.54949834 -100.48120117 22.11352539 C-102.20569442 21.79539047 -103.93500576 21.50193958 -105.66870117 21.23852539 C-113.5907993 19.86171937 -121.05267631 17.13896097 -128.48120117 14.11352539 C-128.48120117 13.45352539 -128.48120117 12.79352539 -128.48120117 12.11352539 C-129.20952148 12.0065332 -129.9378418 11.89954102 -130.68823242 11.78930664 C-133.6925553 11.06238656 -135.61124375 10.01612842 -138.16870117 8.30102539 C-138.93569336 7.79958008 -139.70268555 7.29813477 -140.49291992 6.78149414 C-142.60929001 5.00607169 -143.33987536 3.58422373 -144.48120117 1.11352539 C-137.26442153 1.0430536 -130.04771972 0.99023359 -122.83066177 0.95808887 C-119.47702243 0.9426368 -116.12380314 0.92007271 -112.77026367 0.88720703 C-99.46926455 0.7602701 -86.51654861 0.71142094 -73.39068604 3.02207947 C-64.75577303 4.51668793 -56.2241654 4.57262994 -47.48120117 4.48852539 C-46.6626767 4.48553436 -45.84415222 4.48254333 -45.00082397 4.47946167 C-29.81877935 4.41454715 -14.76729437 -0.03318493 0 0 Z " fill="#FFCB95" transform="translate(543.481201171875,777.886474609375)"/>
<path d="M0 0 C12 3 12 3 15.59375 4.078125 C21.32145354 5.49910971 27.13032793 5.38154139 33 5.375 C34.78627808 5.37693359 34.78627808 5.37693359 36.60864258 5.37890625 C45.93631534 5.2675235 54.17372607 4.02769581 63 1 C62.41198323 7.3290837 61.32440866 13.27265857 59.8125 19.4375 C53.66452075 45.66478402 49.90136909 72.24477352 47 99 C46.82019615 100.64453632 46.64034428 102.2890674 46.46044922 103.93359375 C45.90376285 109.03828199 45.35541534 114.14382951 44.8125 119.25 C44.72764343 120.04796997 44.64278687 120.84593994 44.55535889 121.66809082 C44.31178188 123.97118507 44.07128964 126.27457846 43.83203125 128.578125 C43.76241684 129.2373999 43.69280243 129.8966748 43.62107849 130.57592773 C42.44007162 142.06862128 41.83087142 153.49811504 41.68359375 165.05078125 C41.66295346 166.44468195 41.64195556 167.8385774 41.62062073 169.23246765 C41.56612862 172.85394968 41.51640663 176.47548109 41.46777344 180.0970459 C41.41701687 183.81148533 41.36161719 187.52585543 41.30664062 191.24023438 C41.19995412 198.49343043 41.09832089 205.7466852 41 213 C39.02 213 37.04 213 35 213 C35.76291925 128.60803325 35.76291925 128.60803325 42.50610352 98.75976562 C44.05527776 91.72567716 44.45904373 84.80682853 44.8125 77.625 C45.50652825 65.64717265 46.77636791 53.81914225 48.4375 41.9375 C48.54091705 41.18422424 48.64433411 40.43094849 48.75088501 39.65484619 C50.04521769 30.30133309 51.69207886 21.16500463 54 12 C52.9886499 12.16153564 51.9772998 12.32307129 50.93530273 12.48950195 C45.31627925 13.21841678 39.75356292 13.18598766 34.09399414 13.18530273 C32.07091267 13.1874909 30.04837616 13.20569838 28.02539062 13.22460938 C21.33536755 13.23458952 15.38546864 13.06324849 9 11 C9.1868335 11.67337402 9.37366699 12.34674805 9.56616211 13.04052734 C11.89240899 21.8213936 13.3113356 30.64478584 14.5625 39.625 C14.67049927 40.38845734 14.77849854 41.15191467 14.88977051 41.93850708 C17.11726214 57.76890198 18.60457428 73.60721978 19.23046875 89.5859375 C19.55510745 97.87068674 19.94962101 105.64051964 22.18359375 113.6875 C24.64718517 123.68331592 25.69946307 133.95262751 26.625 144.1875 C26.69103424 144.90725006 26.75706848 145.62700012 26.82510376 146.36856079 C28.78628305 168.51797997 28.26820456 190.78853649 28 213 C26.02 213 24.04 213 22 213 C22.00666183 212.4543338 22.01332367 211.9086676 22.02018738 211.34646606 C22.77701724 146.16307303 18.08920422 80.54309663 2.796875 16.9921875 C2.51565796 15.8175293 2.51565796 15.8175293 2.22875977 14.61914062 C1.88196164 13.18126583 1.52885456 11.74488924 1.16772461 10.31054688 C0.3072471 6.79868662 -0.18711195 3.61749766 0 0 Z " fill="#FF9F3C" transform="translate(465,352)"/>
<path d="M0 0 C0.33 0 0.66 0 1 0 C1.14695312 1.14275391 1.14695312 1.14275391 1.296875 2.30859375 C2.2897092 9.16428506 3.69881955 14.90953101 7 21 C7.44859375 21.88558594 7.8971875 22.77117187 8.359375 23.68359375 C13.63459548 33.09803426 22.56618273 40.21924902 32.9453125 43.515625 C37.26437927 44.53380804 41.61689669 45.31514011 46 46 C46 46.33 46 46.66 46 47 C45.20078125 47.07476562 44.4015625 47.14953125 43.578125 47.2265625 C30.97960863 48.73483559 20.56178811 53.46864279 12 63 C5.37867879 71.72517181 1.98510599 80.16383408 1 91 C0.67 91 0.34 91 0 91 C-0.14695312 90.11699219 -0.29390625 89.23398437 -0.4453125 88.32421875 C-2.69111445 76.30788764 -7.12807519 64.9039436 -17.203125 57.34765625 C-19.43544772 55.83603375 -21.7007387 54.40701065 -24 53 C-24.845625 52.4225 -25.69125 51.845 -26.5625 51.25 C-32.59982047 48.15393822 -39.3356325 47.58621751 -46 47 C-42.56827074 45.00167117 -39.33237037 44.46091976 -35.4375 43.8125 C-29.08206282 42.52683283 -24.57324225 40.34431253 -19.3046875 36.62109375 C-17 35 -17 35 -14.8203125 34.03515625 C-12.46823956 32.69760404 -12.05727918 31.46106162 -11 29 C-10.05014587 27.4530947 -9.09112784 25.91179403 -8.125 24.375 C-3.35483139 16.43249432 -0.59796232 9.26841599 0 0 Z " fill="#FFFCFA" transform="translate(270,272)"/>
<path d="M0 0 C0.66 0.33 1.32 0.66 2 1 C2.51104121 3.15050868 2.93327724 5.32237726 3.3125 7.5 C5.87090432 20.00071812 12.48428655 29.33819845 22.875 36.8125 C30.23093571 41.28640715 38.63512548 42.51843257 47 44 C47 44.33 47 44.66 47 45 C46.14277344 45.10957031 45.28554688 45.21914063 44.40234375 45.33203125 C29.76022883 47.36244854 19.24246846 53.13730284 9.9375 64.6875 C5.9273728 70.16525107 3.19345556 76.29290144 2.375 83.0625 C2.189375 84.5165625 2.189375 84.5165625 2 86 C1.01 86.495 1.01 86.495 0 87 C-0.06316406 86.44054687 -0.12632812 85.88109375 -0.19140625 85.3046875 C-1.86583975 74.34155447 -7.00530448 62.8205391 -16 56 C-24.26387852 49.92624029 -32.02831221 46.93796053 -42 45 C-38.89202512 42.92801674 -36.58397108 42.26449232 -33 41.3125 C-19.45127323 37.19814805 -10.91704683 29.42571273 -4.125 17.125 C-1.53325949 11.64482141 -0.68866068 5.98209721 0 0 Z " fill="#FFFCFA" transform="translate(722,274)"/>
<path d="M0 0 C5.65418281 2.41537907 8.92988909 6.98296969 11.57421875 12.421875 C11.57421875 13.411875 11.57421875 14.401875 11.57421875 15.421875 C12.59515625 15.545625 13.61609375 15.669375 14.66796875 15.796875 C24.24120289 17.10358734 33.22105402 19.35176805 42.38671875 22.421875 C43.41796875 22.76605469 44.44921875 23.11023438 45.51171875 23.46484375 C54.68266313 26.62682061 54.68266313 26.62682061 58.57421875 29.421875 C58.57421875 30.411875 58.57421875 31.401875 58.57421875 32.421875 C53.15259 31.84149177 48.53298098 30.47409101 43.44921875 28.546875 C36.24990853 25.9124271 29.10176742 23.92142625 21.57421875 22.421875 C20.57648438 22.21691406 19.57875 22.01195312 18.55078125 21.80078125 C16.22738894 21.32894388 13.90254171 20.86861868 11.57421875 20.421875 C11.49171875 21.618125 11.40921875 22.814375 11.32421875 24.046875 C10.765713 28.37720729 9.42225187 31.0350248 6.57421875 34.421875 C-0.25999578 39.58240434 -6.04244425 40.19388139 -14.42578125 39.421875 C-19.84461263 37.71323447 -23.21917581 33.91112262 -26.42578125 29.421875 C-28.15249271 25.96845209 -28.42578125 24.38363855 -28.42578125 20.421875 C-43.39580072 23.00760564 -58.83358956 26.47114987 -72.33203125 33.63671875 C-74.80417692 34.56377338 -75.98339648 34.31556579 -78.42578125 33.421875 C-78.26171875 31.578125 -78.26171875 31.578125 -77.42578125 29.421875 C-75.08984375 28.078125 -75.08984375 28.078125 -72.05078125 26.921875 C-70.41689453 26.29152344 -70.41689453 26.29152344 -68.75 25.6484375 C-67.10451172 25.04128906 -67.10451172 25.04128906 -65.42578125 24.421875 C-64.48347656 24.05835938 -63.54117187 23.69484375 -62.5703125 23.3203125 C-55.04894988 20.47673818 -47.46489309 18.04544306 -39.50390625 16.81640625 C-38.82875977 16.70820557 -38.15361328 16.60000488 -37.45800781 16.48852539 C-35.51357449 16.18555446 -33.56342202 15.91999855 -31.61328125 15.65625 C-28.09545824 14.70484264 -28.09545824 14.70484264 -26.7421875 11.0546875 C-26.30777344 9.85585937 -25.87335938 8.65703125 -25.42578125 7.421875 C-23.453125 5.2421875 -23.453125 5.2421875 -21.36328125 3.546875 C-20.67105469 2.97195312 -19.97882813 2.39703125 -19.265625 1.8046875 C-13.98220373 -2.16629155 -6.20506999 -1.47882505 0 0 Z " fill="#FF9D36" transform="translate(508.42578125,235.578125)"/>
<path d="M0 0 C0.33 0 0.66 0 1 0 C1.029729 1.03386841 1.029729 1.03386841 1.06005859 2.08862305 C0.73838583 28.99966628 0.73838583 28.99966628 12.18359375 52.421875 C22.62175733 62.0679351 33.28457242 63.26799684 47 64 C43.32942492 66.44705005 40.19871768 66.47246762 35.9375 66.8125 C26.05802735 67.79137779 18.09667688 70.742035 11 78 C5.56293643 85.67201038 2.93464067 92.80205178 2.3671875 102.24609375 C2.32562531 102.90207047 2.28406311 103.55804718 2.24124146 104.23390198 C2.11189855 106.30139876 1.99326315 108.36934297 1.875 110.4375 C1.78847185 111.85095519 1.70123862 113.2643674 1.61328125 114.67773438 C1.4007109 118.11803127 1.19772909 121.55881448 1 125 C0.67 125 0.34 125 0 125 C-0.01458252 124.41210693 -0.02916504 123.82421387 -0.04418945 123.21850586 C-0.11467933 97.67247389 -0.11467933 97.67247389 -11.96875 75.9765625 C-21.0453526 68.18252331 -31.40357207 66.58027314 -42.9453125 66.2734375 C-46 66 -46 66 -48 64 C-46.69546875 63.91363281 -45.3909375 63.82726562 -44.046875 63.73828125 C-31.53861314 62.78393655 -19.11883159 61.56365264 -10 52 C-1.78913285 41.26452714 -1.3805001 29.87412467 -0.8125 16.9375 C-0.73097545 15.29225993 -0.64830292 13.64707633 -0.56445312 12.00195312 C-0.36305142 8.00183073 -0.17723289 4.0012631 0 0 Z " fill="#FFFBF8" transform="translate(727,452)"/>
<path d="M0 0 C0.33 0 0.66 0 1 0 C1.01417969 0.99257813 1.02835937 1.98515625 1.04296875 3.0078125 C1.38745344 14.79181622 3.08808102 28.34403692 12 37 C22.91699882 46.1155855 35.74255109 47.01897893 49.4375 47.5625 C50.45521484 47.60568359 51.47292969 47.64886719 52.52148438 47.69335938 C55.01421028 47.79868582 57.50702338 47.90081672 60 48 C60 48.33 60 48.66 60 49 C59.13834229 49.04487549 58.27668457 49.08975098 57.38891602 49.13598633 C54.15096346 49.31061699 50.91389575 49.49650046 47.67700195 49.68969727 C46.28369697 49.77061545 44.89013369 49.84721867 43.49633789 49.91918945 C29.48803437 50.64800324 19.65101019 52.8398277 9.75 63.1875 C6.17436803 67.54256128 4.65007281 72.68591937 3 78 C2.505 79.485 2.505 79.485 2 81 C1.77439324 83.39254576 1.59151405 85.78928123 1.4375 88.1875 C1.31181641 90.09595703 1.31181641 90.09595703 1.18359375 92.04296875 C1.12300781 93.01878906 1.06242187 93.99460937 1 95 C0.34 94.67 -0.32 94.34 -1 94 C-1.23490324 91.86208314 -1.36114789 89.71192746 -1.4375 87.5625 C-2.11540896 76.59371072 -4.56500568 68.34275525 -12 60 C-24.09986112 49.51198169 -38.94837672 49.93309637 -54.125 49.4375 C-55.98898438 49.37272461 -55.98898438 49.37272461 -57.890625 49.30664062 C-60.92699671 49.20153545 -63.96343665 49.09938657 -67 49 C-67 48.67 -67 48.34 -67 48 C-66.11328613 47.98018066 -65.22657227 47.96036133 -64.31298828 47.93994141 C-60.97664336 47.86115753 -57.64068935 47.77444756 -54.3046875 47.68261719 C-52.86954487 47.64468107 -51.43431854 47.60977138 -49.99902344 47.578125 C-34.91439112 47.38609627 -34.91439112 47.38609627 -20.75 42.6875 C-19.59757812 42.10548828 -19.59757812 42.10548828 -18.421875 41.51171875 C-12.46097579 37.79096392 -9.12596026 34.33696426 -6.1875 27.9375 C-5.73987305 27.02000977 -5.73987305 27.02000977 -5.28320312 26.08398438 C-2.0662963 19.36696673 -1.71583177 13.6104943 -1.28125 6.21484375 C-1 3 -1 3 0 0 Z " fill="#FFFBF8" transform="translate(272,469)"/>
<path d="M0 0 C4.85618025 -0.17391279 9.71052384 -0.30046322 14.5690918 -0.38452148 C16.21915279 -0.41958104 17.86899854 -0.4672456 19.51831055 -0.52807617 C33.25630947 -1.02183089 33.25630947 -1.02183089 37.47216797 1.44873047 C39.17650663 3.20561136 40.5551584 5.02966475 42 7 C43.92845234 8.50843112 45.90605282 9.72320294 48 11 C48.62261719 10.2059375 49.24523437 9.411875 49.88671875 8.59375 C54.47115236 3.34309302 58.27063955 -0.19987195 65.47265625 -0.73046875 C70.6671005 -0.80791239 75.83238772 -0.5192303 81 0 C76.85380201 5.79394765 76.85380201 5.79394765 72.95703125 6.734375 C71.40048828 6.74210938 71.40048828 6.74210938 69.8125 6.75 C65.38429237 6.56656285 65.38429237 6.56656285 62 9 C63.81230433 9.33439553 65.6248491 9.66748824 67.4375 10 C68.95150391 10.2784375 68.95150391 10.2784375 70.49609375 10.5625 C72.74053928 11.02868656 72.74053928 11.02868656 74 11 C77.66666667 11 81.33333333 11 85 11 C83.51171875 13.484375 83.51171875 13.484375 81 16 C78.05816859 16.34574716 75.71678752 16.4358744 72.8125 16.25 C70.2074146 16.14060009 67.60708979 16.05891728 65 16 C64.505 16.495 64.505 16.495 64 17 C61.67164772 17.07164161 59.3597039 16.9964482 57.03125 16.9375 C55.00390764 16.76775055 55.00390764 16.76775055 54 18 C54.4846875 18.42410156 54.969375 18.84820313 55.46875 19.28515625 C56.87564547 20.51618979 58.28184918 21.74801419 59.6875 22.98046875 C61.22401712 24.32232576 62.76567227 25.65832295 64.3125 26.98828125 C65.034375 27.61089844 65.75625 28.23351562 66.5 28.875 C67.1703125 29.44992187 67.840625 30.02484375 68.53125 30.6171875 C69.0159375 31.07351563 69.500625 31.52984375 70 32 C70 32.33 70 32.66 70 33 C65.41271243 33.59221131 61.56940654 34.00030864 57.5546875 31.44140625 C55.60105836 29.70134588 53.76376458 27.93127295 52 26 C52.495 27.98 52.495 27.98 53 30 C49.88772805 30 47.05847848 29.54372951 44 29 C44 29.99 44 30.98 44 32 C43 33 43 33 39.9375 33.0625 C38.968125 33.041875 37.99875 33.02125 37 33 C37.66 31.68 38.32 30.36 39 29 C38.525625 29.66 38.05125 30.32 37.5625 31 C33.85124437 33.89658976 30.54602793 33.34969446 26 33 C29.5085571 28.81625666 33.08526942 24.81435287 37 21 C37.928125 20.071875 38.85625 19.14375 39.8125 18.1875 C40.534375 17.465625 41.25625 16.74375 42 16 C38.43491581 11.33143737 35.31279895 7.53080632 29.42578125 6.1796875 C25.92450734 5.95285471 22.50580457 5.89085291 19 6 C17.68 6 16.36 6 15 6 C14.20722656 6.06960938 13.41445313 6.13921875 12.59765625 6.2109375 C11.76105469 6.26507812 10.92445313 6.31921875 10.0625 6.375 C9.22847656 6.44460938 8.39445312 6.51421875 7.53515625 6.5859375 C3.65473462 5.6890758 2.43670442 3.08379921 0 0 Z " fill="#FCB386" transform="translate(449,675)"/>
<path d="M0 0 C1.87939453 0.17529297 1.87939453 0.17529297 4 1 C5.09326172 3.22705078 5.09326172 3.22705078 5.9296875 6.1953125 C6.24711914 7.29270752 6.56455078 8.39010254 6.89160156 9.52075195 C7.21612305 10.71015381 7.54064453 11.89955566 7.875 13.125 C8.22014648 14.33953857 8.56529297 15.55407715 8.92089844 16.80541992 C11.61117236 26.35016835 14.14194364 35.93827977 16.578125 45.55078125 C17.61109518 49.59876593 18.75390497 53.60454236 19.9296875 57.61328125 C22.23619158 65.63327881 24.08743341 73.72710626 25.875 81.875 C26.0464151 82.65312042 26.2178302 83.43124084 26.3944397 84.23294067 C32.48047215 111.9311865 37.17991497 139.63191787 40.71679688 167.76306152 C40.99149648 169.93283322 41.27185928 172.10178201 41.5546875 174.27050781 C43.6194159 190.11115606 45.3591518 205.95475728 46.6875 221.875 C46.74834778 222.59978546 46.80919556 223.32457092 46.87188721 224.07131958 C48.42566849 242.79339527 49.14901824 261.39998256 49.0625 280.1875 C49.05746585 282.12434778 49.05290639 284.06119685 49.04882812 285.99804688 C49.0379951 290.66539756 49.02084053 295.33268372 49 300 C48.34 300 47.68 300 47 300 C47.00112793 299.21020752 47.00225586 298.42041504 47.00341797 297.60668945 C46.85173752 250.42417829 42.22598186 202.60699929 35 156 C34.69475086 153.94841741 34.39354322 151.89626785 34.09266663 149.84403992 C30.49484233 125.35290478 25.97614985 101.05031647 20.375 76.9375 C20.0980127 75.74366699 19.82102539 74.54983398 19.53564453 73.31982422 C17.88130622 66.33908466 16.01886405 59.4446916 14.01757812 52.5559082 C12.26705502 46.43873714 10.67823945 40.27885638 9.0625 34.125 C6.54860127 24.58161048 3.92488858 15.10616134 0.8125 5.73828125 C0 3 0 3 0 0 Z " fill="#FFA241" transform="translate(434,279)"/>
<path d="M0 0 C0.99 0 1.98 0 3 0 C2.41029141 4.75273455 1.48326064 9.17613127 0.109375 13.76171875 C-0.27189656 15.04874518 -0.65316263 16.33577324 -1.03442383 17.62280273 C-1.23307037 18.28657928 -1.43171692 18.95035583 -1.63638306 19.63424683 C-5.22883126 31.65511058 -8.57693184 43.70699076 -11.49560547 55.91064453 C-12.25902768 59.0729714 -13.07096754 62.22278905 -13.875 65.375 C-14.38339073 67.41644087 -14.88645773 69.45911237 -15.38720703 71.50244141 C-15.8358429 73.33094536 -16.28781079 75.15863265 -16.74169922 76.98583984 C-29.88710199 130.20389901 -36.26964598 184.46758848 -41 239 C-41.09263123 240.05406036 -41.18526245 241.10812073 -41.28070068 242.19412231 C-42.4834251 255.98683228 -43.34236653 269.72082002 -43.625 283.5625 C-43.6634234 285.18295799 -43.7024863 286.80340094 -43.7421875 288.42382812 C-43.83539984 292.28242133 -43.92030156 296.14110503 -44 300 C-46.74228924 297.25771076 -46.25800319 295.72675106 -46.265625 291.88671875 C-46.26989502 290.59644775 -46.27416504 289.30617676 -46.27856445 287.97680664 C-46.2703898 286.54702943 -46.26082348 285.11725962 -46.25 283.6875 C-46.24484879 282.58751175 -46.24484879 282.58751175 -46.23959351 281.46530151 C-45.9331013 224.93764397 -39.91390147 167.4587882 -29 112 C-28.81566406 111.05125 -28.63132812 110.1025 -28.44140625 109.125 C-21.19246713 72.35913885 -12.03099814 35.50049656 0 0 Z " fill="#FFA241" transform="translate(556,279)"/>
<path d="M0 0 C0.99 0 1.98 0 3 0 C2.39685575 4.42707881 1.28196808 8.26575753 -0.3359375 12.42578125 C-0.82296679 13.69352175 -1.30977296 14.96134799 -1.79638672 16.22924805 C-2.05353455 16.89354828 -2.31068237 17.55784851 -2.57562256 18.24227905 C-11.90508179 42.40363378 -20.35621309 66.9569008 -27 92 C-27.22961426 92.84498047 -27.45922852 93.68996094 -27.69580078 94.56054688 C-35.50538811 123.45014812 -41.40083742 153.28863337 -45 183 C-45.08340637 183.67437103 -45.16681274 184.34874207 -45.25274658 185.04354858 C-46.78116584 197.59609459 -47.39642087 210.05016925 -47.625 222.6875 C-47.66333868 224.47983334 -47.70239843 226.2721514 -47.7421875 228.06445312 C-47.83638462 232.37617253 -47.92100992 236.68797632 -48 241 C-48.66 241 -49.32 241 -50 241 C-55.08105883 200.02634157 -45.52977088 156.97304888 -37 117 C-36.773125 115.91879883 -36.54625 114.83759766 -36.3125 113.72363281 C-28.10111201 74.75803076 -14.10554517 37.15238528 0 0 Z " fill="#FFA446" transform="translate(566,347)"/>
<path d="M0 0 C0.99 0 1.98 0 3 0 C5.1564929 5.59462742 7.30658308 11.19166356 9.45141602 16.79077148 C10.17796002 18.68495838 10.90608518 20.57853975 11.63598633 22.47143555 C38.5276361 92.23383133 54.82986194 166.12091851 54 241 C53.34 241 52.68 241 52 241 C51.98541748 240.35490479 51.97083496 239.70980957 51.95581055 239.04516602 C50.18450073 167.4855011 35.7514356 96.45529532 10.00927734 29.66259766 C8.22446788 24.95405097 6.57224086 20.19935915 4.9387207 15.43652344 C3.85446595 12.30233043 2.68857964 9.24830313 1.3359375 6.22265625 C0 3 0 3 0 0 Z " fill="#FFA241" transform="translate(424,347)"/>
<path d="M0 0 C2.6369624 2.6369624 2.22425738 3.95596473 2.3125 7.625 C2.84505806 15.29199961 5.51684233 19.20644762 10.5 24.8125 C15.09320075 28.40929212 21.4084409 28.97958194 27 30 C27 30.33 27 30.66 27 31 C26.443125 31.02578125 25.88625 31.0515625 25.3125 31.078125 C18.11474935 31.61309295 12.07030667 33.36575485 7.125 38.875 C3.15532133 44.71276275 2.26861293 51.17108361 1 58 C0.67 58 0.34 58 0 58 C-0.07476563 57.0821875 -0.14953125 56.164375 -0.2265625 55.21875 C-1.0536759 47.49902491 -1.79335862 41.15488835 -8 36 C-15.7663725 30.96514635 -25.05732198 31.22190268 -34 31 C-34 30.67 -34 30.34 -34 30 C-32.72125 29.91363281 -31.4425 29.82726562 -30.125 29.73828125 C-28.41657376 29.59747689 -26.70824499 29.45548643 -25 29.3125 C-23.74123047 29.23225586 -23.74123047 29.23225586 -22.45703125 29.15039062 C-15.00892712 28.48641235 -9.90552048 25.90552048 -4.625 20.625 C-0.7108569 14.30215346 -0.49742779 7.2388834 0 0 Z " fill="#FFF8F3" transform="translate(657,414)"/>
<path d="M0 0 C2.4660449 2.4660449 2.21292914 3.23959078 2.3125 6.625 C2.86471818 13.32912245 5.65891105 17.45234437 10.125 22.3125 C14.46087925 24.8574726 19.12874875 25.87389638 24 27 C24 27.66 24 28.32 24 29 C23.28714844 29.14695312 22.57429688 29.29390625 21.83984375 29.4453125 C13.83071152 31.32093701 8.69943466 33.81122209 4.1875 40.8125 C2.69873489 44.80865897 1.79034124 48.81584051 1 53 C0.67 53 0.34 53 0 53 C-0.09796875 52.27554688 -0.1959375 51.55109375 -0.296875 50.8046875 C-1.41754706 43.55896299 -2.91029826 38.85203238 -8.4375 33.75 C-12.77155938 30.79015457 -16.60297585 29.75159211 -21.8125 29.375 C-22.78832031 29.30023438 -23.76414062 29.22546875 -24.76953125 29.1484375 C-25.50558594 29.09945313 -26.24164063 29.05046875 -27 29 C-27 28.34 -27 27.68 -27 27 C-26.29875 26.97421875 -25.5975 26.9484375 -24.875 26.921875 C-16.97858056 26.44980645 -10.59189317 25.17990202 -5.125 19.125 C-1.01218443 13.07674181 -0.53478071 7.12102736 0 0 Z " fill="#FFFAF6" transform="translate(341,417)"/>
<path d="M0 0 C0.33 0 0.66 0 1 0 C1.03738281 1.29292969 1.07476562 2.58585937 1.11328125 3.91796875 C1.42484533 12.72665775 1.81203286 21.14491418 4.18359375 29.6875 C6.64718517 39.68331592 7.69946307 49.95262751 8.625 60.1875 C8.69103424 60.90725006 8.75706848 61.62700012 8.82510376 62.36856079 C10.78628305 84.51797997 10.26820456 106.78853649 10 129 C8.02 129 6.04 129 4 129 C4.00666183 128.4543338 4.01332367 127.9086676 4.02018738 127.34646606 C4.44904907 90.40994765 4.02833871 53.64818844 -1.44921875 17.04296875 C-1.89900732 13.99946849 -2.13139586 11.08467422 -2 8 C-1.67 8 -1.34 8 -1 8 C-0.67 5.36 -0.34 2.72 0 0 Z " fill="#FFA445" transform="translate(483,436)"/>
<path d="M0 0 C0.33 0.66 0.66 1.32 1 2 C1.66 2 2.32 2 3 2 C2.88406494 2.88631104 2.76812988 3.77262207 2.64868164 4.68579102 C-0.43853447 28.81421316 -1.7711016 52.68151807 -2 77 C-2.66 77 -3.32 77 -4 77 C-7.17285059 51.41413286 -3.60420457 25.36305483 0 0 Z " fill="#FFAB54" transform="translate(520,511)"/>
<path d="M0 0 C0 0.33 0 0.66 0 1 C-0.84304688 1.04898438 -1.68609375 1.09796875 -2.5546875 1.1484375 C-3.65039062 1.22320313 -4.74609375 1.29796875 -5.875 1.375 C-7.51082031 1.47941406 -7.51082031 1.47941406 -9.1796875 1.5859375 C-12.13046474 1.73253491 -12.13046474 1.73253491 -14 4 C-12.18769567 4.33439553 -10.3751509 4.66748824 -8.5625 5 C-7.55316406 5.185625 -6.54382813 5.37125 -5.50390625 5.5625 C-3.25946072 6.02868656 -3.25946072 6.02868656 -2 6 C1.66666667 6 5.33333333 6 9 6 C7.51171875 8.484375 7.51171875 8.484375 5 11 C2.05816859 11.34574716 -0.28321248 11.4358744 -3.1875 11.25 C-5.7925854 11.14060009 -8.39291021 11.05891728 -11 11 C-11.33 11.33 -11.66 11.66 -12 12 C-13.51928038 12.07179964 -15.04167482 12.08392007 -16.5625 12.0625 C-17.38878906 12.05347656 -18.21507812 12.04445313 -19.06640625 12.03515625 C-19.70449219 12.02355469 -20.34257812 12.01195312 -21 12 C-21.33 11.01 -21.66 10.02 -22 9 C-15.47089518 0.49697976 -10.6040678 -1.32755717 0 0 Z " fill="#FEEDE2" transform="translate(525,680)"/>
<path d="M0 0 C0.33 0 0.66 0 1 0 C3.11286217 24.02256856 3.22631736 47.90242394 3 72 C2.34 72 1.68 72 1 72 C0.98018066 70.96931396 0.96036133 69.93862793 0.93994141 68.87670898 C0.41776589 42.08822831 0.41776589 42.08822831 -1.59765625 15.37890625 C-1.98823769 11.56144753 -2.07743671 7.83569857 -2 4 C-1.34 4 -0.68 4 0 4 C0 2.68 0 1.36 0 0 Z " fill="#FFAA52" transform="translate(480,507)"/>
<path d="M0 0 C0.33 0 0.66 0 1 0 C3.72564198 21.75922516 4.38112392 43.09026085 4 65 C3.34 65 2.68 65 2 65 C1.98541748 64.36537842 1.97083496 63.73075684 1.95581055 63.0769043 C1.66592166 51.52744438 1.23970708 40.02589977 0.1953125 28.51953125 C0.12365372 27.72745773 0.05199493 26.93538422 -0.02183533 26.11930847 C-0.38201684 22.19162197 -0.76102344 18.26651595 -1.15942383 14.3425293 C-1.29784517 12.89503448 -1.43611735 11.44752538 -1.57421875 10 C-1.70401123 8.72125 -1.83380371 7.4425 -1.9675293 6.125 C-2 3 -2 3 0 0 Z " fill="#FFB05D" transform="translate(474,523)"/>
<path d="M0 0 C0.33 0 0.66 0 1 0 C1 2.31 1 4.62 1 7 C1.66 7 2.32 7 3 7 C2.8594438 10.33357738 2.71158198 13.66679389 2.5625 17 C2.52318359 17.93457031 2.48386719 18.86914062 2.44335938 19.83203125 C2.40146484 20.75371094 2.35957031 21.67539062 2.31640625 22.625 C2.27974854 23.46289062 2.24309082 24.30078125 2.20532227 25.1640625 C2.04481459 27.38101514 1.79034988 29.59121167 1.5 31.79492188 C0.94564206 36.08330963 0.78035178 40.33627676 0.68359375 44.65625 C0.66281265 45.44398804 0.64203156 46.23172607 0.62062073 47.04333496 C0.55589026 49.52881206 0.49660094 52.01438333 0.4375 54.5 C0.39424177 56.19792592 0.35062532 57.89584275 0.30664062 59.59375 C0.20028887 63.72907325 0.09881251 67.86449001 0 72 C-2.74228924 69.25771076 -2.25800319 67.72675106 -2.265625 63.88671875 C-2.26949219 62.59241943 -2.27335937 61.29812012 -2.27734375 59.96459961 C-2.26909517 58.53889447 -2.25995768 57.11319423 -2.25 55.6875 C-2.24822754 54.97079132 -2.24645508 54.25408264 -2.24462891 53.51565552 C-2.19327815 35.6473215 -1.13926105 17.82670841 0 0 Z " fill="#FFB05E" transform="translate(512,507)"/>
<path d="M0 0 C8.63316 -0.40314301 8.63316 -0.40314301 11.5546875 1.6171875 C12.9296875 3.27734375 12.9296875 3.27734375 14.6171875 6.27734375 C13.93011719 6.26574219 13.24304688 6.25414062 12.53515625 6.2421875 C11.63410156 6.23316406 10.73304688 6.22414063 9.8046875 6.21484375 C8.91136719 6.20324219 8.01804687 6.19164062 7.09765625 6.1796875 C4.48304959 6.16724408 4.48304959 6.16724408 1.6171875 7.27734375 C-2.11560354 7.72755824 -5.66487036 7.89514551 -9.3828125 7.27734375 C-11.6101691 5.42301532 -12.19404049 3.99453692 -13.3828125 1.27734375 C-8.93216099 0.71473318 -4.47025071 0.36649861 0 0 Z " fill="#FDDCC7" transform="translate(473.3828125,684.72265625)"/>
<path d="M0 0 C0.33 0 0.66 0 1 0 C1.86669149 4.78101753 2.72061803 9.5640885 3.56347656 14.34936523 C3.85110887 15.97236431 4.14204528 17.5947818 4.43652344 19.21655273 C6.06389107 28.1919834 7.54725907 36.83214383 7 46 C6.34 45.67 5.68 45.34 5 45 C4.40414363 42.48560449 3.93353144 40.03885287 3.52734375 37.4921875 C3.3353817 36.35392014 3.3353817 36.35392014 3.13954163 35.19265747 C2.73054449 32.75474136 2.33399628 30.31497712 1.9375 27.875 C1.66680894 26.25247162 1.39533397 24.63007381 1.12304688 23.0078125 C0.011305 16.34741264 -1.06610418 9.68789908 -2 3 C-1.34 3 -0.68 3 0 3 C0 2.01 0 1.02 0 0 Z " fill="#FFA548" transform="translate(467,481)"/>
<path d="M0 0 C0.99 0 1.98 0 3 0 C2.38404218 4.60282906 1.16273187 8.60025975 -0.50390625 12.9296875 C-0.7466478 13.56488312 -0.98938934 14.20007874 -1.23948669 14.85452271 C-2.00856593 16.86341403 -2.78538685 18.86920469 -3.5625 20.875 C-4.08840705 22.24459348 -4.61380284 23.61438339 -5.13867188 24.984375 C-6.41987778 28.32520837 -7.70803966 31.66330853 -9 35 C-9.99 35 -10.98 35 -12 35 C-11.40430765 30.66625722 -10.34559714 26.90086708 -8.75 22.83203125 C-8.3065625 21.69185547 -7.863125 20.55167969 -7.40625 19.37695312 C-6.9421875 18.20068359 -6.478125 17.02441406 -6 15.8125 C-5.08291161 13.46500846 -4.16622571 11.11735963 -3.25 8.76953125 C-2.84265625 7.73417236 -2.4353125 6.69881348 -2.015625 5.63208008 C-1.2978102 3.77180091 -0.63054712 1.89164135 0 0 Z " fill="#FFA13F" transform="translate(566,347)"/>
<path d="M0 0 C2.80096887 0.08753028 3.79873455 0.80567474 5.8125 2.75 C7.31690887 5.6004589 6.92250763 6.98088413 6 10 C5.236875 9.67 4.47375 9.34 3.6875 9 C1.00930865 7.82563314 1.00930865 7.82563314 -2 8 C-2 8.99 -2 9.98 -2 11 C-3 12 -3 12 -6.0625 12.0625 C-7.031875 12.041875 -8.00125 12.02125 -9 12 C-8.01 10.68 -7.02 9.36 -6 8 C-6.99 7.01 -7.98 6.02 -9 5 C-8.071875 4.731875 -7.14375 4.46375 -6.1875 4.1875 C-3.02735393 3.27205339 -3.02735393 3.27205339 -1.375 1.3125 C-0.92125 0.879375 -0.4675 0.44625 0 0 Z " fill="#FEF2EA" transform="translate(495,696)"/>
<path d="M0 0 C3.45308687 1.51270549 5.95624379 3.54720642 8.75 6.0625 C9.54921875 6.77535156 10.3484375 7.48820313 11.171875 8.22265625 C12.07679688 9.10244141 12.07679688 9.10244141 13 10 C13 10.33 13 10.66 13 11 C4.37757848 11.92017937 4.37757848 11.92017937 1 9.6640625 C-0.625 8 -0.625 8 -3 5 C-1.125 1.125 -1.125 1.125 0 0 Z " fill="#FDBD95" transform="translate(506,697)"/>
<path d="M0 0 C2.6875 0.3125 2.6875 0.3125 5 1 C3.78896139 4.63311582 2.72226766 7.27773234 0 10 C-2.1640625 10.1953125 -2.1640625 10.1953125 -4.625 10.125 C-5.44226563 10.10695313 -6.25953125 10.08890625 -7.1015625 10.0703125 C-7.72804688 10.04710937 -8.35453125 10.02390625 -9 10 C-8.06409496 8.8944811 -7.12620142 7.79064547 -6.1875 6.6875 C-5.66542969 6.07261719 -5.14335937 5.45773437 -4.60546875 4.82421875 C-4.07566406 4.22222656 -3.54585938 3.62023437 -3 3 C-2.4946875 2.4225 -1.989375 1.845 -1.46875 1.25 C-0.9840625 0.8375 -0.499375 0.425 0 0 Z " fill="#FDC09B" transform="translate(484,698)"/>
<path d="M0 0 C0.66 0.33 1.32 0.66 2 1 C2.33 0.67 2.66 0.34 3 0 C4.68608966 -0.07205511 6.37500659 -0.08386068 8.0625 -0.0625 C8.98160156 -0.05347656 9.90070312 -0.04445313 10.84765625 -0.03515625 C11.55792969 -0.02355469 12.26820313 -0.01195312 13 0 C10.62176166 4.22797927 10.62176166 4.22797927 8 6 C3.62526521 6.54022149 -0.61358567 6.34680289 -5 6 C-5 5.34 -5 4.68 -5 4 C-3.37373596 2.61767557 -1.7074998 1.28062485 0 0 Z " fill="#FCB284" transform="translate(532,675)"/>
<path d="M0 0 C0.33 0.66 0.66 1.32 1 2 C1.66 2 2.32 2 3 2 C3 10.91 3 19.82 3 29 C2.34 29 1.68 29 1 29 C0.15156826 22.43300475 -0.12561146 16.05449407 -0.0625 9.4375 C-0.05798828 8.52419922 -0.05347656 7.61089844 -0.04882812 6.66992188 C-0.0371874 4.44654262 -0.02083851 2.22330879 0 0 Z " fill="#FFBF7D" transform="translate(515,559)"/>
<path d="M0 0 C0 1.65 0 3.3 0 5 C0.99 5.33 1.98 5.66 3 6 C2.67 6.66 2.34 7.32 2 8 C1.01 8.33 0.02 8.66 -1 9 C-1.99 10.485 -1.99 10.485 -3 12 C-3.66 11.01 -4.32 10.02 -5 9 C-7.05003955 7.80767387 -7.05003955 7.80767387 -9 7 C-8.34 5.02 -7.68 3.04 -7 1 C-1.125 0 -1.125 0 0 0 Z " fill="#FCB487" transform="translate(500,670)"/>
<path d="M0 0 C3.63 0 7.26 0 11 0 C9.6875 2.5 9.6875 2.5 7 5 C3.29998705 5.45251957 -0.29013428 5.28783441 -4 5 C-3.34 4.01 -2.68 3.02 -2 2 C-1.34 2 -0.68 2 0 2 C0 1.34 0 0.68 0 0 Z " fill="#FCB386" transform="translate(523,686)"/>
<path d="M0 0 C0.66 0.33 1.32 0.66 2 1 C0.68 6.94 -0.64 12.88 -2 19 C-2.99 18.34 -3.98 17.68 -5 17 C-4.41070415 11.49990544 -3.58330805 6.30873874 -2 1 C-1.34 0.67 -0.68 0.34 0 0 Z " fill="#FFA84E" transform="translate(536,441)"/>
<path d="M0 0 C3.38115651 -0.29036649 6.62919149 -0.44908891 10 0 C12.625 2.5 12.625 2.5 14 5 C10.61884349 5.29036649 7.37080851 5.44908891 4 5 C1.375 2.5 1.375 2.5 0 0 Z " fill="#FCB386" transform="translate(460,686)"/>
<path d="M0 0 C1.41823316 0.08006155 2.83603027 0.17654137 4.25 0.3125 C2.8125 2.8125 2.8125 2.8125 0.25 5.3125 C-2.79256578 5.7576258 -5.6965865 5.60609745 -8.75 5.3125 C-6.33348981 1.10987358 -4.73606739 -0.03729187 0 0 Z " fill="#FCB385" transform="translate(513.75,685.6875)"/>
<path d="M0 0 C3.0534135 -0.29359745 5.95743422 -0.4451258 9 0 C11.5625 2.5 11.5625 2.5 13 5 C9.9465865 5.29359745 7.04256578 5.4451258 4 5 C1.4375 2.5 1.4375 2.5 0 0 Z " fill="#FCB386" transform="translate(475,686)"/>
<path d="M0 0 C0.33 0 0.66 0 1 0 C1.25488223 4.4155779 1.47445991 8.83222123 1.6875 13.25 C1.76033203 14.50425781 1.83316406 15.75851562 1.90820312 17.05078125 C1.96298828 18.25605469 2.01777344 19.46132813 2.07421875 20.703125 C2.13182373 21.81333008 2.18942871 22.92353516 2.2487793 24.06738281 C2 27 2 27 -1 31 C-0.67 20.77 -0.34 10.54 0 0 Z " fill="#FFE5CA" transform="translate(727,452)"/>
<path d="M0 0 C1.98 1.65 3.96 3.3 6 5 C5.67 5.99 5.34 6.98 5 8 C1.9168649 6.80100302 -1.06279492 5.52299523 -4 4 C-2.68 2.68 -1.36 1.36 0 0 Z " fill="#FCBE97" transform="translate(496,698)"/>
<path d="M0 0 C0.33 0 0.66 0 1 0 C1.19335938 1.05960938 1.38671875 2.11921875 1.5859375 3.2109375 C1.84855064 4.59903553 2.11159386 5.98705224 2.375 7.375 C2.50132812 8.07367187 2.62765625 8.77234375 2.7578125 9.4921875 C3.50143321 13.67259465 3.50143321 13.67259465 6 17 C5.01 19.475 5.01 19.475 4 22 C3.67 22 3.34 22 3 22 C-0.44419134 7.40318907 -0.44419134 7.40318907 0 0 Z " fill="#FFB96F" transform="translate(387,750)"/>
<path d="M0 0 C4.75 0.75 4.75 0.75 7 3 C7 3.99 7 4.98 7 6 C3.04 6 -0.92 6 -5 6 C-5 5.67 -5 5.34 -5 5 C-1.535 4.505 -1.535 4.505 2 4 C1.34 2.68 0.68 1.36 0 0 Z " fill="#FDD4BA" transform="translate(459,675)"/>
<path d="M0 0 C1.4370809 -0.05422947 2.87475462 -0.09289723 4.3125 -0.125 C5.11300781 -0.14820313 5.91351562 -0.17140625 6.73828125 -0.1953125 C9 0 9 0 12 2 C10 5 10 5 7.375 5.6875 C6.59125 5.790625 5.8075 5.89375 5 6 C5.66 4.68 6.32 3.36 7 2 C4.69 1.67 2.38 1.34 0 1 C0 0.67 0 0.34 0 0 Z " fill="#FDD6BE" transform="translate(510,685)"/>
<path d="M0 0 C0.33 0 0.66 0 1 0 C1.33 4.29 1.66 8.58 2 13 C1.01 13.66 0.02 14.32 -1 15 C-1.22211116 13.06403108 -1.42722992 11.12610672 -1.625 9.1875 C-1.74101562 8.10855469 -1.85703125 7.02960937 -1.9765625 5.91796875 C-2 3 -2 3 0 0 Z " fill="#FFB466" transform="translate(474,523)"/>
<path d="M0 0 C0.66 0.33 1.32 0.66 2 1 C1.01 2.485 1.01 2.485 0 4 C2.64 4.33 5.28 4.66 8 5 C8 5.33 8 5.66 8 6 C3.71 6 -0.58 6 -5 6 C-5 5.34 -5 4.68 -5 4 C-3.37373596 2.61767557 -1.7074998 1.28062485 0 0 Z " fill="#FDD0B3" transform="translate(532,675)"/>
<path d="M0 0 C1.32 0.66 2.64 1.32 4 2 C3.01 3.485 3.01 3.485 2 5 C-1.125 5.1875 -1.125 5.1875 -4 5 C-2.68 3.35 -1.36 1.7 0 0 Z " fill="#FDD0B4" transform="translate(490,703)"/>
<path d="M0 0 C1.32 0.66 2.64 1.32 4 2 C2.68 3.32 1.36 4.64 0 6 C-0.99 5.67 -1.98 5.34 -3 5 C-1.125 1.125 -1.125 1.125 0 0 Z " fill="#FDDAC5" transform="translate(506,697)"/>
<path d="M0 0 C0.33 0 0.66 0 1 0 C1 3.63 1 7.26 1 11 C0.34 10.67 -0.32 10.34 -1 10 C-1.40729228 7.67843403 -1.74438677 5.3431213 -2 3 C-1.34 3 -0.68 3 0 3 C0 2.01 0 1.02 0 0 Z " fill="#FFAB54" transform="translate(473,516)"/>
<path d="M0 0 C0.33 0 0.66 0 1 0 C1.05422947 1.4370809 1.09289723 2.87475462 1.125 4.3125 C1.14820313 5.11300781 1.17140625 5.91351563 1.1953125 6.73828125 C1 9 1 9 -1 12 C-1.2226746 10.56465159 -1.42761906 9.12654475 -1.625 7.6875 C-1.74101562 6.88699219 -1.85703125 6.08648437 -1.9765625 5.26171875 C-2 3 -2 3 0 0 Z " fill="#FFB05D" transform="translate(470,497)"/>
<path d="M0 0 C0.66 0 1.32 0 2 0 C1.67 2.64 1.34 5.28 1 8 C0.01 7.34 -0.98 6.68 -2 6 C-1.125 1.125 -1.125 1.125 0 0 Z " fill="#FFA94F" transform="translate(527,480)"/>
</svg>
